<?xml version="1.0" encoding="iso-8859-1"?>
<!-- Generator: Adobe Illustrator 19.0.0, SVG Export Plug-In . SVG Version: 6.00 Build 0)  -->
<svg version="1.1" id="Capa_1" xmlns="http://www.w3.org/2000/svg" xmlns:xlink="http://www.w3.org/1999/xlink" x="0px" y="0px"
	 viewBox="0 0 512 512" style="enable-background:new 0 0 512 512;" xml:space="preserve">
<circle style="fill:#8ED25E;" cx="256.004" cy="123.516" r="115.988"/>
<path style="fill:#80CD4A;" d="M283.657,223.435c-64.056,0-115.984-51.928-115.984-115.984c0-37.099,17.419-70.129,44.524-91.359
	c-42.339,17.284-72.181,58.863-72.181,107.419c0,64.055,51.928,115.984,115.984,115.984c26.956,0,51.764-9.198,71.459-24.625
	C313.943,220.387,299.157,223.435,283.657,223.435z"/>
<g>
	<path style="fill:#91E1F9;" d="M256,7.528c-24.687,0-47.569,7.718-66.374,20.866l14.181,25.527l23.197,5.799l23.197,17.397
		l23.197,23.197l17.397,46.393l-11.599,23.197L255.999,193.1l-5.142,46.274c1.705,0.074,3.418,0.119,5.142,0.119
		c30.636,0,58.492-11.884,79.225-31.285l-32.832-38.304l5.799-34.795l-5.799-46.393l17.397-23.197l23.197,28.996l19.487-17.051
		C344.655,36.318,303.693,7.528,256,7.528z"/>
	<path style="fill:#91E1F9;" d="M192.209,152.508l23.197-5.799l-11.599-40.594l-23.197-5.799l-35.233-11.744
		c-3.48,11.027-5.361,22.764-5.361,34.941c0,40.025,20.274,75.314,51.113,96.16l24.277-32.368L192.209,152.508z"/>
</g>
<g>
	<path style="fill:#6CD6F7;" d="M253.082,219.354l-2.224,20.021c1.705,0.074,3.418,0.119,5.142,0.119
		c26.945,0,51.738-9.196,71.428-24.612c-13.507,5.509-28.282,8.553-43.77,8.553C273.074,223.435,262.824,222.01,253.082,219.354z"/>
	<path style="fill:#6CD6F7;" d="M212.198,16.092c-8.011,3.271-15.574,7.409-22.573,12.301l3.587,6.457
		C198.802,27.896,205.172,21.597,212.198,16.092z"/>
	<path style="fill:#6CD6F7;" d="M167.674,107.452c0-3.802,0.189-7.56,0.546-11.268l-22.843-7.614
		c-3.48,11.027-5.361,22.764-5.361,34.941c0,40.025,20.274,75.314,51.113,96.16l17.704-23.606
		C183.663,174.79,167.674,142.991,167.674,107.452z"/>
</g>
<path style="fill:#F7A541;" d="M284.104,472.354v-40.148c0-13.304-10.785-24.089-24.089-24.089h-8.03
	c-13.304,0-24.089,10.785-24.089,24.089v40.148H284.104z"/>
<path style="fill:#F58E11;" d="M266.037,408.876c-1.925-0.495-3.943-0.759-6.022-0.759h-8.03c-13.304,0-24.089,10.785-24.089,24.089
	v40.148h20.074v-40.148C247.97,420.981,255.647,411.55,266.037,408.876z"/>
<path d="M318.359,16.876c-3.585-2.102-8.199-0.898-10.301,2.689c-2.103,3.587-0.898,8.199,2.689,10.301
	c18.57,10.881,33.193,26.938,42.463,45.703l-9.258,8.102l-18.282-22.853c-3.028-3.781-8.995-3.687-11.9,0.187L296.372,84.2
	c-1.17,1.561-1.69,3.515-1.447,5.451l5.663,45.305l-5.619,33.713c-0.365,2.197,0.261,4.444,1.71,6.136l27.957,32.618
	c-17.925,14.688-40.621,23.757-65.375,24.491l3.928-35.356l21.33-21.329c0.572-0.572,1.049-1.234,1.41-1.956l11.599-23.197
	c0.936-1.873,1.051-4.05,0.315-6.01l-17.398-46.394c-0.377-1.006-0.966-1.919-1.725-2.68l-23.196-23.196
	c-0.252-0.252-0.522-0.485-0.807-0.699l-23.197-17.4c-0.803-0.602-1.717-1.037-2.691-1.281l-20.029-5.006l-9.177-16.519
	C216.063,20.849,235.367,15.056,256,15.056c7.73,0,15.446,0.816,22.929,2.427c4.062,0.876,8.069-1.71,8.943-5.775
	s-1.711-8.069-5.775-8.943C273.573,0.93,264.793,0,256,0c-25.948,0-50.047,8.05-69.946,21.772c-0.028,0.015-0.056,0.026-0.084,0.041
	c-0.479,0.266-0.914,0.579-1.31,0.926c-31.547,22.4-52.171,59.221-52.171,100.772c0,65.576,51.372,119.37,115.984,123.275v40.886
	c0,0.081,0.01,0.161,0.012,0.242l-13.06,9.795c-3.025,2.268-3.894,6.581-1.971,9.84c2.247,3.81,7.462,4.862,11.005,2.204
	l32.118-24.089c3.325-2.494,4-7.214,1.506-10.539c-2.493-3.325-7.214-3.999-10.539-1.506l-4.015,3.011v-29.845
	c64.612-3.904,115.984-57.699,115.984-123.275C379.511,79.84,356.079,38.98,318.359,16.876z M187.277,39.67l9.949,17.907
	c1.013,1.821,2.734,3.142,4.755,3.647l21.723,5.43l21.553,16.164l21.665,21.665l15.673,41.794l-9.584,19.169l-22.332,22.331
	c-1.209,1.208-1.97,2.793-2.159,4.493l-4.339,39.05c-15.181-1.653-29.433-6.446-42.084-13.723l19.333-25.779
	c1.915-2.553,2.011-6.037,0.241-8.692l-17.272-25.908l12.834-3.208c4.066-1.017,6.565-5.336,5.412-9.372l-11.599-40.594
	c-0.739-2.587-2.802-4.582-5.412-5.235l-22.917-5.729l-27.667-9.222C161.89,66.504,173.084,51.325,187.277,39.67z M147.544,123.512
	c0-8.705,1.038-17.171,2.984-25.288l27.701,9.233c0.184,0.061,0.368,0.114,0.555,0.162l18.979,4.746l8.265,28.93l-15.647,3.91
	c-2.375,0.594-4.313,2.306-5.195,4.589c-0.883,2.282-0.601,4.853,0.758,6.889l20.243,30.364l-16.607,22.143
	C164.022,189.33,147.544,158.311,147.544,123.512z M335.605,197.086l-25.208-29.411l5.221-31.329
	c0.119-0.718,0.135-1.448,0.044-2.171L310.24,90.8l9.743-12.989l17.126,21.408c2.639,3.298,7.654,3.748,10.835,0.963l11.253-9.846
	c3.427,10.597,5.259,21.775,5.259,33.176C364.455,151.881,353.501,177.739,335.605,197.086z"/>
<path d="M263.493,400.785c0.021-0.23,0.035-0.462,0.035-0.698v-48.178c0-0.081-0.01-0.161-0.012-0.242l13.06-9.795
	c3.325-2.494,4-7.214,1.506-10.539c-2.493-3.325-7.214-3.999-10.539-1.506l-32.118,24.089c-3.025,2.268-3.894,6.581-1.971,9.84
	c2.247,3.81,7.462,4.862,11.005,2.204l4.015-3.011v37.137c0,0.235,0.014,0.468,0.035,0.698
	c-15.802,1.737-28.139,15.163-28.139,31.421v40.148c0,4.158,3.369,7.528,7.528,7.528h8.531v24.591c0,4.158,3.369,7.528,7.528,7.528
	c4.158,0,7.528-3.369,7.528-7.528v-24.591h9.033v24.591c0,4.158,3.369,7.528,7.528,7.528s7.528-3.369,7.528-7.528v-24.591h8.531
	c4.158,0,7.528-3.369,7.528-7.528v-40.148C291.631,415.949,279.295,402.522,263.493,400.785z M276.576,464.826h-41.152v-32.62
	c0-9.132,7.429-16.561,16.561-16.561h8.03c9.132,0,16.561,7.429,16.561,16.561V464.826z"/>
<g>
</g>
<g>
</g>
<g>
</g>
<g>
</g>
<g>
</g>
<g>
</g>
<g>
</g>
<g>
</g>
<g>
</g>
<g>
</g>
<g>
</g>
<g>
</g>
<g>
</g>
<g>
</g>
<g>
</g>
</svg>
