<?xml version="1.0" encoding="iso-8859-1"?>
<!-- Generator: Adobe Illustrator 19.0.0, SVG Export Plug-In . SVG Version: 6.00 Build 0)  -->
<svg version="1.1" id="Layer_1" xmlns="http://www.w3.org/2000/svg" xmlns:xlink="http://www.w3.org/1999/xlink" x="0px" y="0px"
	 viewBox="0 0 395.636 395.636" style="enable-background:new 0 0 395.636 395.636;" xml:space="preserve">
<path style="fill:#FDBF5E;" d="M197.818,150.82c-41.438,0-75.442-34.004-75.442-75.442S156.38,0,197.818,0
	s75.442,34.004,75.442,75.442S239.257,150.82,197.818,150.82z"/>
<g>
	<circle style="fill:#FFFFFF;" cx="197.818" cy="66.133" r="32.129"/>
	<path style="fill:#FFFFFF;" d="M234.925,98.909h-74.214c-12.994,0-23.467,10.537-23.467,23.467v34.004
		c16.679,12.994,37.689,20.428,60.574,20.428s43.895-7.434,60.574-20.428v-34.004C258.392,109.446,247.919,98.909,234.925,98.909z"
		/>
</g>
<path style="fill:#193651;" d="M259.62,288.711c0.646-0.646,1.228-0.646,1.875-0.646l-57.471-57.471v-48.226
	c21.01-1.228,40.792-8.663,58.117-21.657l2.457-1.875v-36.461c0-16.679-12.994-29.673-29.673-29.673h-8.663
	c6.206-6.788,10.537-16.097,10.537-25.988c0-21.01-17.325-38.335-38.335-38.335s-38.335,17.325-38.335,38.335
	c0,9.891,3.685,19.135,10.537,25.988h-9.891c-16.097,0-29.673,13.576-29.673,29.673v36.461l2.457,1.875
	c17.325,12.994,37.107,20.428,58.117,21.657v48.226l-85.333,85.333l8.663,8.663l82.812-82.877l55.014,55.014
	C254.061,293.624,256.517,290.521,259.62,288.711z M197.818,40.21c14.222,0,25.988,11.766,25.988,25.988s-11.766,26.57-25.988,26.57
	c-14.222,0-25.988-11.766-25.988-25.988S183.596,40.21,197.818,40.21z M143.451,152.695v-30.319c0-9.244,8.016-17.325,17.325-17.325
	h74.214c9.244,0,17.325,8.016,17.325,17.325v30.319c-16.162,11.119-34.715,17.325-54.497,17.325S159.483,163.814,143.451,152.695z"
	/>
<path style="fill:#F16051;" d="M320.194,390.723c-41.438,0-75.442-34.004-75.442-75.442s34.069-75.442,75.442-75.442
	s75.442,33.422,75.442,75.442C395.636,356.719,361.632,390.723,320.194,390.723z"/>
<g>
	<circle style="fill:#FFFFFF;" cx="320.194" cy="305.972" r="32.129"/>
	<path style="fill:#FFFFFF;" d="M357.301,338.166h-37.107h-37.042c-12.994,0-23.467,10.537-23.467,23.467v34.004h121.083v-34.004
		C380.768,348.638,370.295,338.166,357.301,338.166z"/>
</g>
<g>
	<path style="fill:#193651;" d="M357.301,331.96h-8.663c6.206-6.788,10.537-16.097,10.537-25.988
		c0-21.01-17.325-38.335-38.335-38.335s-38.335,17.325-38.335,38.335c0,9.891,3.685,19.135,10.537,25.988h-8.663
		c-16.097,0-29.673,13.576-29.673,29.673v34.004h12.347v-34.004c0-9.244,8.016-17.325,17.325-17.325h74.149
		c9.244,0,17.325,8.016,17.325,17.325v34.004h12.347v-34.004C386.974,345.535,373.98,331.96,357.301,331.96z M294.271,305.972
		c0-14.222,11.766-25.988,25.988-25.988s25.988,11.766,25.988,25.988s-11.766,25.988-25.988,25.988S294.271,320.194,294.271,305.972
		z"/>
	<rect x="284.962" y="370.941" style="fill:#193651;" width="12.347" height="12.994"/>
	<rect x="314.053" y="370.941" style="fill:#193651;" width="12.347" height="12.994"/>
	<rect x="343.725" y="370.941" style="fill:#193651;" width="12.347" height="12.994"/>
	<rect x="161.939" y="131.038" style="fill:#193651;" width="12.347" height="12.994"/>
	<rect x="191.612" y="131.038" style="fill:#193651;" width="12.347" height="12.994"/>
	<rect x="221.285" y="131.038" style="fill:#193651;" width="12.347" height="12.994"/>
</g>
<path style="fill:#2EA2DB;" d="M75.442,390.723C34.004,390.723,0,356.719,0,315.281s34.004-75.442,75.442-75.442
	s75.442,34.004,75.442,75.442S116.816,390.723,75.442,390.723z"/>
<circle style="fill:#FFFFFF;" cx="75.442" cy="305.972" r="32.129"/>
<path id="SVGCleanerId_0" style="fill:#FFFFFF;" d="M112.485,338.166H75.378H38.335c-12.994,0-23.467,10.537-23.467,23.467v34.004
	h121.147v-34.004C136.016,348.638,125.479,338.166,112.485,338.166z"/>
<circle style="fill:#FFFFFF;" cx="75.442" cy="305.972" r="32.129"/>
<g>
	<path id="SVGCleanerId_0_1_" style="fill:#FFFFFF;" d="M112.485,338.166H75.378H38.335c-12.994,0-23.467,10.537-23.467,23.467
		v34.004h121.147v-34.004C136.016,348.638,125.479,338.166,112.485,338.166z"/>
</g>
<g>
	<path style="fill:#193651;" d="M112.485,331.96h-8.663c6.206-6.788,10.537-16.097,10.537-25.988
		c0-21.01-17.325-38.335-38.335-38.335s-38.335,17.325-38.335,38.335c0,9.891,3.685,19.135,10.537,25.988h-9.891
		c-16.097,0-29.673,13.576-29.673,29.673v34.004H21.01v-34.004c0-9.244,8.016-17.325,17.325-17.325h74.149
		c9.244,0,17.325,8.016,17.325,17.325v34.004h12.347v-34.004C142.158,345.535,128.582,331.96,112.485,331.96z M49.455,305.972
		c0-14.222,11.766-25.988,25.988-25.988s25.988,11.766,25.988,25.988S89.665,331.96,75.442,331.96S49.455,320.194,49.455,305.972z"
		/>
	<rect x="39.564" y="370.941" style="fill:#193651;" width="12.347" height="12.994"/>
	<rect x="69.236" y="370.941" style="fill:#193651;" width="12.347" height="12.994"/>
	<rect x="98.263" y="370.941" style="fill:#193651;" width="12.347" height="12.994"/>
</g>
<g>
</g>
<g>
</g>
<g>
</g>
<g>
</g>
<g>
</g>
<g>
</g>
<g>
</g>
<g>
</g>
<g>
</g>
<g>
</g>
<g>
</g>
<g>
</g>
<g>
</g>
<g>
</g>
<g>
</g>
</svg>
