<?xml version="1.0" encoding="iso-8859-1"?>
<!-- Generator: Adobe Illustrator 19.0.0, SVG Export Plug-In . SVG Version: 6.00 Build 0)  -->
<svg version="1.1" id="Layer_1" xmlns="http://www.w3.org/2000/svg" xmlns:xlink="http://www.w3.org/1999/xlink" x="0px" y="0px"
	 viewBox="0 0 512 512" style="enable-background:new 0 0 512 512;" xml:space="preserve">
<path style="fill:#507C5C;" d="M467.162,512H44.837c-7.586,0-13.734-6.149-13.734-13.734V13.734C31.102,6.149,37.251,0,44.837,0
	h422.326c7.584,0,13.734,6.149,13.734,13.734v252.338c0,7.586-6.15,13.734-13.734,13.734s-13.734-6.149-13.734-13.734V27.469H58.571
	v457.062h394.857V349.393c0-7.586,6.15-13.734,13.734-13.734s13.734,6.149,13.734,13.734v148.872
	C480.896,505.851,474.747,512,467.162,512z"/>
<rect x="214.724" y="81.009" style="fill:#CFF09E;" width="192.283" height="54.481"/>
<path style="fill:#507C5C;" d="M407.013,149.223H214.73c-7.586,0-13.734-6.149-13.734-13.734V81.009
	c0-7.586,6.149-13.734,13.734-13.734h192.283c7.584,0,13.734,6.149,13.734,13.734v54.481
	C420.747,143.074,414.597,149.223,407.013,149.223z M228.464,121.754h164.814v-27.01H228.464V121.754z"/>
<rect x="214.724" y="228.762" style="fill:#CFF09E;" width="192.283" height="54.481"/>
<g>
	<path style="fill:#507C5C;" d="M407.013,296.975H214.73c-7.586,0-13.734-6.149-13.734-13.734V228.76
		c0-7.586,6.149-13.734,13.734-13.734h192.283c7.584,0,13.734,6.149,13.734,13.734v54.481
		C420.747,290.827,414.597,296.975,407.013,296.975z M228.464,269.507h164.814v-27.012H228.464V269.507z"/>
	<path style="fill:#507C5C;" d="M407.013,444.726H214.73c-7.586,0-13.734-6.149-13.734-13.734c0-7.586,6.149-13.734,13.734-13.734
		h178.548v-27.012H214.73c-7.586,0-13.734-6.149-13.734-13.734s6.149-13.734,13.734-13.734h192.283
		c7.584,0,13.734,6.149,13.734,13.734v54.481C420.747,438.577,414.597,444.726,407.013,444.726z"/>
	<path style="fill:#507C5C;" d="M125.487,90.557c0.988,0,2.441-0.198,3.962-1.045v58.31c0,5.128,5.116,8.71,12.439,8.71
		c7.323,0,12.438-3.582,12.438-8.71V68.8c0-5.457-5.876-8.835-11.32-8.835c-1.99,0-3.692,0.433-5.027,1.268l-16.389,9.933
		c-3.138,1.883-4.938,5.142-4.938,8.941C116.653,85.132,120.031,90.557,125.487,90.557z"/>
	<path style="fill:#507C5C;" d="M114.68,304.16h44.231c4.655,0,8.587-5.183,8.587-11.32c0-6.002-3.932-11.071-8.587-11.071h-29.307
		c1.567-2.781,6.571-6.207,11.437-9.537c11.165-7.642,26.457-18.11,26.457-35.923c0-18.489-16.332-28.466-31.696-28.466
		c-14.944,0-30.827,9.324-30.827,26.602c0,10.588,6.223,12.812,11.445,12.812c8.401,0,12.935-5.065,12.935-9.83
		c0-1.626,0-6.572,6.572-6.572c6.212,0,6.696,4.649,6.696,6.075c0,6.08-8.588,12.384-16.895,18.481
		c-10.935,8.026-22.243,16.328-22.243,27.988v12.052C103.482,301.057,110.103,304.16,114.68,304.16z"/>
	<path style="fill:#507C5C;" d="M158.71,400.369c4.357-4.274,6.924-11.442,6.924-19.915c0-11.512-5.284-25.236-30.455-25.236
		c-21.466,0-31.074,12.549-31.074,24.987c0,8.103,2.993,10.574,12.81,10.574c7.841,0,11.817-3.307,11.817-9.828
		c0-1.846,0-3.59,6.447-3.59c4.821,0,6.447,1.564,6.447,6.198c0,7.939-3.064,7.939-6.944,7.939c-5.144,0-8.338,3.909-8.338,10.202
		s3.195,10.202,8.338,10.202c7.036,0,9.182,1.681,9.182,7.193v2.361c0,6.623-1.867,8.436-8.684,8.436
		c-8.311,0-8.311-3.125-8.311-4.46c0-7.642-5.071-9.208-12.685-9.208c-6.202,0-11.941,1.191-11.941,9.828
		c0,12.633,10.113,26.23,32.317,26.23c21.722,0,34.182-11.236,34.182-30.827v-2.361C168.74,410.707,165.293,404.316,158.71,400.369z
		"/>
</g>
<g>
</g>
<g>
</g>
<g>
</g>
<g>
</g>
<g>
</g>
<g>
</g>
<g>
</g>
<g>
</g>
<g>
</g>
<g>
</g>
<g>
</g>
<g>
</g>
<g>
</g>
<g>
</g>
<g>
</g>
</svg>
