<?xml version="1.0" encoding="iso-8859-1"?>
<!-- Generator: Adobe Illustrator 19.0.0, SVG Export Plug-In . SVG Version: 6.00 Build 0)  -->
<svg version="1.1" id="Capa_1" xmlns="http://www.w3.org/2000/svg" xmlns:xlink="http://www.w3.org/1999/xlink" x="0px" y="0px"
	 viewBox="0 0 385.38 385.38" style="enable-background:new 0 0 385.38 385.38;" xml:space="preserve">
<g>
	<path style="fill:#FFED00;" d="M189.52,64.281C107.892,64.31,41.744,130.506,41.773,212.134
		c0.005,13.144,1.763,26.228,5.227,38.907c7.81-9.846,18.896-16.561,31.24-18.92c-11.069-61.486,29.802-120.304,91.288-131.373
		c38.576-6.945,77.998,6.575,104.192,35.733c5.248-11.141,15.793-18.854,28-20.48C273.648,83.229,232.671,64.34,189.52,64.281
		L189.52,64.281z"/>
	<g>
		<path style="fill:#50D1EF;" d="M159.2,271.441c23.815,0.011,43.111,19.325,43.101,43.139
			c-0.011,23.799-19.301,43.09-43.101,43.101H33.72c-18.623,0-33.72-15.097-33.72-33.72s15.097-33.72,33.72-33.72H36
			c-3.965-28.719,16.101-55.215,44.82-59.18s55.215,16.101,59.18,44.82C145.969,272.932,152.542,271.412,159.2,271.441z"/>
		<path style="fill:#50D1EF;" d="M355.6,143.481c16.447,0,29.78,13.333,29.78,29.78s-13.333,29.78-29.78,29.78h-86.64
			c-12.857,0.005-23.284-10.413-23.29-23.27c-0.005-12.857,10.413-23.284,23.27-23.29c0.006,0,0.013,0,0.019,0h1.56
			c-0.19-1.526-0.283-3.062-0.28-4.6c0.295-20.013,16.758-35.997,36.771-35.701c17.551,0.259,32.393,13.059,35.229,30.381
			C346.391,144.505,350.967,143.45,355.6,143.481L355.6,143.481z"/>
	</g>
	<path style="fill:#F16730;" d="M41.76,212.081c0.115-81.628,66.38-147.707,148.008-147.592c43.064,0.061,83.96,18.9,111.992,51.592
		c19.56-2.501,37.53,11.096,40.44,30.6c5.075-2.522,10.763-3.549,16.4-2.96C321.869,49.872,216.014,3.568,122.165,40.299
		S-17.988,182.885,18.742,276.734c1.939,4.954,4.094,9.821,6.458,14.587c2.782-0.722,5.646-1.085,8.52-1.08H36
		c-0.273-2.203-0.406-4.42-0.4-6.64c-0.015-11.859,4.005-23.369,11.4-32.64C43.533,238.292,41.77,225.217,41.76,212.081
		L41.76,212.081z"/>
	<path style="fill:#45B549;" d="M189.52,98.921C127.046,98.923,76.402,149.57,76.404,212.045c0,6.732,0.601,13.451,1.796,20.076
		c3.244-0.613,6.538-0.921,9.84-0.92c9.497-0.029,18.821,2.544,26.96,7.44c-14.671-41.16,6.802-86.421,47.962-101.092
		c32.243-11.493,68.22-0.948,89.158,26.132c4.388-4.608,10.477-7.211,16.84-7.2h1.56c-0.19-1.526-0.283-3.062-0.28-4.6
		c-0.012-5.338,1.163-10.612,3.44-15.44C252.222,112.558,221.627,98.918,189.52,98.921L189.52,98.921z"/>
</g>
<g>
</g>
<g>
</g>
<g>
</g>
<g>
</g>
<g>
</g>
<g>
</g>
<g>
</g>
<g>
</g>
<g>
</g>
<g>
</g>
<g>
</g>
<g>
</g>
<g>
</g>
<g>
</g>
<g>
</g>
</svg>
